<svg xmlns="http://www.w3.org/2000/svg" width="128" height="128"><style>.st0{fill:#e1efff;stroke:#000;stroke-width:2.7871692;stroke-miterlimit:10}.st2{fill:#9098af}.st3{fill:none;stroke:#333;stroke-width:2.7871692;stroke-miterlimit:10}</style><path d="M29.0243778,106.7695084c-0.2564201,0.0069733-0.5142326,0.0111542-0.7720451,0.0111542 c-14.6995316,0-26.6160736-11.9165421-26.6160736-26.6160736c0-14.4235992,11.473381-26.1687355,25.7924633-26.6035309 C31.9941063,34.6779861,49.0028076,20.651556,69.2892151,20.651556c23.7843094,0,43.0659485,19.2802448,43.0659485,43.0645523 c0,3.5090446-0.4194717,6.9191475-1.2124176,10.1843147c8.705719,0.4250488,15.6346207,7.6187286,15.6346207,16.4303665 c0,9.0847778-7.3650894,16.4498749-16.4498672,16.4498749c-0.1937103,0-0.3860245-0.0027924-0.5783386-0.0111542H70.2424316 h-1.9064255H29.0243778z" class="st0"/><path d="M68.3360062,106.7695084h1.9064255c-0.3163452,0.0083618-0.6340866,0.0111542-0.9532166,0.0111542 S68.6523514,106.7778702,68.3360062,106.7695084z" class="st0"/><path d="M109.749 106.77L110.333 106.77M28.251 106.77L29.024 106.77"/><path d="M19.9640045 92.7805023C10.0137501 86.6807098 5.4865932 75.0936661 7.8882151 64.3054428c-.6216054.7947998-1.2059894 1.6315002-1.7459517 2.5123138-7.6826639 12.5323029-3.7512424 28.9197769 8.7810678 36.6024475 12.5323019 7.6826553 28.9197693 3.7512436 36.6024361-8.7810669 1.5828819-2.5820694 2.6715355-5.3279037 3.2947426-8.1274033C46.5978889 97.0253906 31.6155109 99.9232101 19.9640045 92.7805023zM126.9312744 94.3621368c.2272491-.9325027.369133-1.8656998.4324646-2.7917862-3.7922897 5.3087845-10.5600662 8.0618362-17.286377 6.4226379-7.8943024-1.9238281-13.0560379-9.2454681-12.5199203-17.0853958-1.1842499 1.657814-2.0789261 3.5643234-2.5908127 5.6647949-2.1510773 8.8267975 3.2606506 17.7261276 12.0874481 19.8772125C115.880867 108.6006775 124.7801895 103.1889343 126.9312744 94.3621368z" class="st2"/><path d="M74.6727142,83.0966263c-22.836071,0-41.5173683-17.7752914-42.9706802-40.2441483 c-3.4298058,6.1810951-5.385416,13.2932434-5.385416,20.8631363c0,23.7841644,19.2808762,43.0650482,43.0650368,43.0650482 s43.065033-19.2808838,43.065033-43.0650482c0-0.9480629-0.0340271-1.8880424-0.0943451-2.8208618 C105.0058746,74.1342926,90.8869858,83.0966263,74.6727142,83.0966263z" class="st2"/><path d="M37.729 97.859H65.18299999999999V106.36H37.729zM75.634 96.326H104.202V107.196H75.634z" class="st2"/><path d="M68.3360062,106.7695084h1.9064255c-0.3163452,0.0083618-0.6340866,0.0111542-0.9532166,0.0111542 S68.6523514,106.7778702,68.3360062,106.7695084z" class="st3"/><path d="M27.4287224 53.561058C13.1096411 53.9958534 1.6362596 65.7409897 1.6362596 80.1645889c0 14.6995316 11.9165421 26.6160736 26.6160736 26.6160736.2578125 0 .515625-.0041809.7720451-.0111542h39.3116302 1.9064255 39.5067291c.1923141.0083618.3846283.0111542.5783386.0111542 9.0847778 0 16.4498672-7.365097 16.4498672-16.4498749 0-8.8116379-6.9289017-16.0053177-15.6346207-16.4303665.7929459-3.2651672 1.2124176-6.6752701 1.2124176-10.1843147 0-23.7843056-19.2816391-43.0645523-43.0659485-43.0645523C49.0028076 20.651556 31.9941063 34.6779861 27.4287224 53.561058zM109.749 106.77L110.333 106.77M28.251 106.77L29.024 106.77" class="st3"/><path fill="#fff" stroke="#000" stroke-miterlimit="10" stroke-width="2.787" d="M50.2133026,77.2187195c-3.2033119-12.4502029,7.8033295-23.4568443,20.2535324-20.2535324 c5.6117477,1.4438438,10.0799255,5.9120216,11.5237732,11.5237656c3.2033081,12.4502106-7.8033295,23.4568481-20.2535362,20.25354 C56.1253242,87.298645,51.6571503,82.8304672,50.2133026,77.2187195z"/><path fill="#333" d="M71.5369873,72.8352737c-2.90979,0-5.2771149-2.3673248-5.2771149-5.2771149 c0-0.8430328,0.1997528-1.6398926,0.5527878-2.3474808c-0.2341614-0.0216064-0.4709244-0.0341339-0.7106552-0.0341339 c-4.233284,0-7.6772346,3.4439545-7.6772346,7.6772385s3.4439507,7.6772385,7.6772346,7.6772385 s7.6772385-3.4439545,7.6772385-7.6772385c0-0.1720123-0.0077438-0.3421707-0.0189362-0.5113983 C73.0841141,72.6578979,72.3310547,72.8352737,71.5369873,72.8352737z"/><path fill="#d1d8e8" d="M66.1019516,56.4037704c-9.0851097,0-16.4500656,7.3649445-16.4500656,16.4500732 c0,0.2673645,0.0069237,0.5330887,0.0195274,0.7973328c2.5504189-5.781601,8.3319588-9.8177223,15.0570564-9.8177223 c0.9898529,0,1.9590683,0.0881271,2.9007568,0.2556877c0.9569016-1.068634,2.3465729-1.7416458,3.8939056-1.7416458 c2.8862152,0,5.2259445,2.3397369,5.2259445,5.2259445c0,0.4515152-0.0572968,0.8896484-0.1649475,1.3075562 c2.6727676,2.7785187,4.3786316,6.4938889,4.5748978,10.6051941c0.8950119-2.028923,1.3930054-4.2723312,1.3930054-6.6323471 C82.5520325,63.7687149,75.1870804,56.4037704,66.1019516,56.4037704z"/><path d="M81.9906158,68.4889526c3.2033081,12.4502106-7.8033295,23.4568481-20.2535362,20.25354 c-5.6117477-1.4438477-10.0799255-5.9120255-11.5237694-11.5237732 c-3.2033119-12.4502029,7.8033295-23.4568443,20.2535324-20.2535324 C76.0785904,58.4090309,80.5467682,62.8772087,81.9906158,68.4889526z" class="st3"/></svg>